<svg xmlns="http://www.w3.org/2000/svg" viewBox="0 0 101.82 101.78"><defs><style>.cls-1{fill:#1daa99;}.cls-2{fill:#fff;}.cls-3{fill:#fc7572;}.cls-4{fill:#f44545;}</style></defs><title>Recurso 55</title><g id="Capa_2" data-name="Capa 2"><g id="Capa_1-2" data-name="Capa 1"><ellipse class="cls-1" cx="50.91" cy="50.89" rx="50.91" ry="50.89"/><path class="cls-2" d="M69.94,17.74a5.47,5.47,0,0,1-7.63,7.83s3.71.52,5.77-2A9.3,9.3,0,0,0,69.94,17.74Z"/><polygon class="cls-3" points="50.91 28.59 18.7 84.36 83.13 84.36 50.91 28.59"/><polygon class="cls-2" points="51.73 46.55 24.32 81.05 79.13 81.05 51.73 46.55"/><path class="cls-4" d="M19.22,84.36,50.76,43.78S55,62.29,19.22,84.36Z"/><path class="cls-4" d="M82.6,84.36,51.06,43.78S46.86,62.29,82.6,84.36Z"/><path class="cls-3" d="M50.91,82.53h0a.68.68,0,0,1-.67-.67V44.44a.68.68,0,0,1,.67-.67h0a.68.68,0,0,1,.67.67V81.86A.69.69,0,0,1,50.91,82.53Z"/></g></g></svg>